Product Description
In their new home of Fixham Harbour, Bob and the team set to work tackling exciting new building jobs, and making new friends. But when Spud and Scrambler learn of an amazing treasure, the pirate Brickbeard's Golden Hammer, hidden somewhere in Fixham they decide that building can wait, and they must find the hammer to give to Bob. Help them follow the clues and find the Golden Hammer in this all-new special !


Synopsis
Everyone's favourite fix-it man Bob the Builder sets to work on some exciting building projects in his new home of Fixham Harbour. Spud and Scrambler, however, are more interested in hunting for treasure after they learn of the pirate Blackbeard's Golden Hammer. Will the pair put all the clues together and track down the hidden bounty? Find out in this great new adventure.

Format : MPEG-4
Format profile : Base Media / Version 2
Codec ID : mp42
File size : 801 MiB
Duration : 59mn 46s
Overall bit rate : 1 873 Kbps
Encoded date : UTC 2010-05-29 17:09:34
Tagged date : UTC 2010-05-29 19:47:37
Writing application : HandBrake 0.9.3 2008112300

Video
ID : 1
Format : AVC
Format/Info : Advanced Video Codec
Format profile : Main@L4.0
Format settings, CABAC : Yes
Format settings, ReFrames : 3 frames
Codec ID : avc1
Codec ID/Info : Advanced Video Coding
Duration : 59mn 46s
Bit rate mode : Variable
Bit rate : 1 709 Kbps
Width : 702 pixels
Height : 576 pixels
Display aspect ratio : 16:9
Frame rate mode : Variable
Frame rate : 25.000 fps
Minimum frame rate : 12.500 fps
Maximum frame rate : 62.338 fps
Resolution : 8 bits
Colorimetry : 4:2:0
Scan type : Progressive
Bits/(Pixel*Frame) : 0.169
Stream size : 731 MiB (91%)
Writing library : x264 core 65

Language : English
Encoded date : UTC 2010-05-29 17:09:34
Tagged date : UTC 2010-05-29 19:47:37
Color primaries : BT.601-6 525, BT.1358 525, BT.1700 NTSC, SMPTE 170M
Transfer characteristics : BT.709-5, BT.1361
Matrix coefficients : BT.601-6 525, BT.1358 525, BT.1700 NTSC, SMPTE 170M

Audio
ID : 2
Format : AAC
Format/Info : Advanced Audio Codec
Format version : Version 4
Format profile : LC
Format settings, SBR : No
Codec ID : 40
Duration : 59mn 46s
Bit rate mode : Variable
Bit rate : 160 Kbps
Maximum bit rate : 225 Kbps
Channel(s) : 2 channels
Channel positions : L R
Sampling rate : 48.0 KHz
Stream size : 68.4 MiB (9%)
Language : English
Encoded date : UTC 2010-05-29 17:09:35
Tagged date : UTC 2010-05-29 19:47:28